<svg width="92" height="92" viewBox="0 0 92 92" fill="none" xmlns="http://www.w3.org/2000/svg">
<mask id="path-1-inside-1" fill="white">
<path fill-rule="evenodd" clip-rule="evenodd" d="M90.7997 44.8856L86.986 42.5248C86.9539 42.1534 86.9174 41.7828 86.8775 41.4139L90.1548 38.3571C90.4881 38.0463 90.6374 37.5863 90.5471 37.1411C90.4594 36.6941 90.1461 36.3261 89.72 36.1673L85.5305 34.6007C85.4255 34.2379 85.3152 33.8777 85.2024 33.5192L87.8157 29.8896C88.0822 29.5207 88.1369 29.0408 87.9633 28.6198C87.7897 28.2006 87.4104 27.9003 86.9617 27.8265L82.544 27.1079C82.3721 26.7729 82.1933 26.4431 82.0128 26.1158L83.8693 22.0409C84.0594 21.6261 84.0203 21.1435 83.7669 20.7668C83.5143 20.3884 83.0864 20.1671 82.6299 20.1845L78.1462 20.3407C77.9145 20.0508 77.6784 19.7635 77.438 19.4814L78.4682 15.114C78.5723 14.6705 78.4413 14.2062 78.1184 13.8842C77.7981 13.5631 77.3329 13.4303 76.8894 13.5344L72.5229 14.5638C72.24 14.3242 71.9527 14.0873 71.6619 13.8555L71.819 9.37185C71.8364 8.91792 71.6151 8.48656 71.2366 8.23487C70.8574 7.98143 70.3774 7.94324 69.9634 8.13158L65.8894 9.98894C65.5604 9.80841 65.2306 9.62962 64.8973 9.4569L64.1769 5.0383C64.104 4.59045 63.8037 4.2103 63.3837 4.03671C62.9645 3.86226 62.4836 3.91868 62.1148 4.18426L58.4825 6.79758C58.1249 6.68388 57.7656 6.57453 57.4028 6.47038L55.8362 2.28003C55.6774 1.85302 55.3094 1.5397 54.8624 1.45117C54.4163 1.36351 53.9571 1.51192 53.6473 1.84347L50.5905 5.12336C50.2216 5.08256 49.8501 5.04524 49.4795 5.01487L47.1188 1.20034C46.8801 0.81411 46.4574 0.578903 46.0026 0.578903C45.5478 0.578903 45.1251 0.81411 44.8873 1.20034L42.5266 5.01487C42.1551 5.04524 41.7836 5.08256 41.4147 5.12336L38.3571 1.84347C38.0472 1.51192 37.5872 1.36351 37.142 1.45117C36.695 1.54056 36.327 1.85302 36.1682 2.28003L34.6015 6.47038C34.2388 6.57453 33.8794 6.68475 33.521 6.79758L29.8896 4.18426C29.5207 3.91781 29.0399 3.86139 28.6198 4.03671C28.2006 4.2103 27.8994 4.59045 27.8265 5.0383L27.1061 9.4569C26.7729 9.62962 26.4431 9.80754 26.1141 9.98894L22.0401 8.13158C21.6261 7.94238 21.1435 7.98143 20.7668 8.23487C20.3884 8.48656 20.1671 8.91792 20.1845 9.37185L20.3407 13.8555C20.0508 14.0873 19.7635 14.3242 19.4797 14.5638L15.1132 13.5344C14.6697 13.4311 14.2045 13.5631 13.8833 13.8842C13.5605 14.2062 13.4294 14.6705 13.5335 15.114L14.562 19.4814C14.3234 19.7644 14.0873 20.0508 13.8555 20.3407L9.37185 20.1845C8.91966 20.1714 8.48743 20.3884 8.23487 20.7668C7.98143 21.1435 7.94324 21.6261 8.13158 22.0409L9.98894 26.1158C9.80841 26.4431 9.62962 26.7729 9.45691 27.1079L5.03917 27.8265C4.59045 27.8994 4.21204 28.1997 4.03758 28.6198C3.864 29.0408 3.92041 29.5207 4.18513 29.8896L6.79845 33.5192C6.68475 33.8777 6.57453 34.2379 6.47038 34.6007L2.28004 36.1673C1.85475 36.3261 1.54143 36.6941 1.45291 37.1411C1.36438 37.5872 1.51279 38.0463 1.84521 38.3571L5.12336 41.4139C5.08257 41.7828 5.04611 42.1542 5.01487 42.5248L1.20121 44.8856C0.81498 45.1243 0.579773 45.5461 0.579773 46.0017C0.579773 46.4574 0.81498 46.8792 1.20121 47.117L5.01487 49.4778C5.04611 49.8492 5.08257 50.2198 5.12336 50.5887L1.84521 53.6464C1.51279 53.9563 1.36438 54.4163 1.45291 54.8615C1.54143 55.3085 1.85475 55.6756 2.28004 55.8353L6.47038 57.4019C6.57453 57.7647 6.68475 58.1249 6.79845 58.4834L4.18513 62.1139C3.91955 62.4836 3.86313 62.9636 4.03758 63.3828C4.21204 63.8037 4.59132 64.104 5.04004 64.1761L9.45691 64.8947C9.62962 65.2297 9.80668 65.5595 9.98894 65.8885L8.13158 69.9617C7.94238 70.3757 7.98143 70.8574 8.23487 71.2358C8.4883 71.6151 8.91966 71.8364 9.37185 71.8182L13.8538 71.6611C14.0873 71.9527 14.3225 72.2382 14.562 72.522L13.5335 76.8903C13.4294 77.3329 13.5605 77.7955 13.8833 78.1175C14.2036 78.4413 14.6697 78.5706 15.1132 78.4665L19.4797 77.438C19.7635 77.6792 20.0508 77.9136 20.3407 78.1445L20.1845 82.629C20.1671 83.0829 20.3884 83.5134 20.7668 83.7669C21.1435 84.0194 21.6261 84.0576 22.0401 83.8684L26.1141 82.0119C26.4422 82.1942 26.772 82.3713 27.1061 82.544L27.8265 86.96C27.8994 87.4096 28.1997 87.7897 28.6198 87.9624C29.039 88.1369 29.5207 88.0805 29.8896 87.8157L33.5192 85.2007C33.8777 85.3144 34.2379 85.4255 34.6007 85.5296L36.1673 89.7182C36.3261 90.1435 36.6941 90.4586 37.1411 90.5454C37.5872 90.6356 38.0463 90.4863 38.3562 90.1531L41.4139 86.8749C41.7828 86.9174 42.1542 86.953 42.5257 86.986L44.8864 90.7997C45.1243 91.1842 45.5469 91.4211 46.0017 91.4211C46.4565 91.4211 46.8792 91.185 47.1179 90.7997L49.4786 86.986C49.8501 86.953 50.2207 86.9174 50.5896 86.8749L53.6464 90.1531C53.9563 90.4863 54.4163 90.6356 54.8615 90.5454C55.3085 90.4577 55.6765 90.1435 55.8353 89.7182L57.4019 85.5296C57.7647 85.4255 58.1249 85.3144 58.4834 85.2007L62.1139 87.8157C62.4828 88.0805 62.9636 88.1369 63.3828 87.9624C63.8029 87.7897 64.1032 87.4087 64.1761 86.96L64.8964 82.544C65.2297 82.3713 65.5595 82.1916 65.8885 82.0119L69.9625 83.8684C70.3765 84.0576 70.8582 84.0194 71.2358 83.7669C71.6142 83.5134 71.8346 83.0838 71.8182 82.629L71.6619 78.1445C71.9518 77.9127 72.2391 77.6792 72.522 77.438L76.8886 78.4665C77.3321 78.5706 77.7973 78.4413 78.1175 78.1175C78.4404 77.7955 78.5715 77.3329 78.4673 76.8903L77.4388 72.522C77.6784 72.2382 77.9145 71.9527 78.1453 71.6611L82.629 71.8182C83.0812 71.8364 83.5134 71.6151 83.766 71.2358C84.0194 70.8574 84.0585 70.3757 83.8684 69.9617L82.0119 65.8885C82.1933 65.5595 82.3712 65.2297 82.5431 64.8947L86.9608 64.1761C87.4104 64.104 87.7888 63.8037 87.9624 63.3828C88.136 62.9636 88.0813 62.4836 87.8149 62.1139L85.2015 58.4834C85.3144 58.1249 85.4246 57.7647 85.5296 57.4019L89.7191 55.8353C90.1452 55.6756 90.4594 55.3085 90.5462 54.8615C90.6365 54.4154 90.4872 53.9563 90.1539 53.6464L86.8766 50.5887C86.9166 50.2198 86.953 49.8484 86.9851 49.4778L90.7988 47.117C91.185 46.8792 91.4202 46.4565 91.4202 46.0017C91.4202 45.5469 91.1859 45.1243 90.7997 44.8856ZM63.2049 73.3119C62.8924 74.7726 63.8185 76.2081 65.2749 76.5223C66.7304 76.8339 68.1659 75.9043 68.4784 74.4462C68.7908 72.9881 67.863 71.55 66.4066 71.2384C64.9511 70.9242 63.5164 71.8529 63.2049 73.3119ZM61.0585 69.6501C61.3432 68.3187 62.6503 67.4733 63.9791 67.758L69.6857 68.9844L69.7469 68.9012C75.7854 60.6954 77.4448 58.4404 79.212 45.7084C79.212 44.5948 79.1565 43.496 79.0506 42.4085L72.9248 39.6876C71.6845 39.1365 71.1238 37.6818 71.6732 36.4381L74.855 29.2517C70.1031 20.9343 61.8578 14.8719 52.1189 13.0588L47.4711 17.5043C46.4886 18.4443 44.9333 18.4078 43.9942 17.4245L39.8403 13.0666C32.5151 14.4414 22.5 19 17.5 30L20.0404 36.3088C20.5915 37.5525 20.0308 39.0071 18.7897 39.5583L12.9789 42.1403C12.854 43.3112 12.7889 44.5028 12.7889 45.7084C12.7889 48.8668 16.1434 63.3828 22.1572 68.8238L27.7354 67.6261C29.0633 67.3405 30.3704 68.1876 30.6551 69.5173L32.0082 75.8358C36.261 77.8129 41.0016 78.9186 46 78.9186C50.8864 78.9186 55.5263 77.865 59.7045 75.9686L61.0585 69.6501ZM23.2361 74.3169C23.5494 75.7759 24.9832 76.7046 26.4396 76.3904C27.8951 76.0779 28.822 74.6406 28.5105 73.1825C28.198 71.7235 26.7633 70.7949 25.3069 71.1065C23.8506 71.4206 22.9245 72.8553 23.2361 74.3169ZM14.7712 38.2034C16.133 37.6002 16.7475 36.0024 16.1434 34.6389C15.5393 33.2745 13.9467 32.66 12.584 33.2641C11.2223 33.869 10.6078 35.4643 11.2118 36.8286C11.8159 38.193 13.4094 38.8084 14.7712 38.2034ZM47.8096 9.44736C46.7794 8.36939 45.0722 8.3286 43.996 9.35969C42.918 10.3908 42.8789 12.0997 43.9066 13.1786C44.9368 14.2583 46.644 14.2982 47.7202 13.2671C48.7991 12.2369 48.8381 10.5279 47.8096 9.44736ZM79.1295 33.396C77.7678 32.7911 76.1743 33.4064 75.5711 34.7699C74.9678 36.1352 75.5823 37.7313 76.9424 38.3354C78.305 38.9403 79.8985 38.3249 80.5017 36.9606C81.1058 35.5971 80.4913 34.0001 79.1295 33.396Z"/>
</mask>
<path fill-rule="evenodd" clip-rule="evenodd" d="M90.7997 44.8856L86.986 42.5248C86.9539 42.1534 86.9174 41.7828 86.8775 41.4139L90.1548 38.3571C90.4881 38.0463 90.6374 37.5863 90.5471 37.1411C90.4594 36.6941 90.1461 36.3261 89.72 36.1673L85.5305 34.6007C85.4255 34.2379 85.3152 33.8777 85.2024 33.5192L87.8157 29.8896C88.0822 29.5207 88.1369 29.0408 87.9633 28.6198C87.7897 28.2006 87.4104 27.9003 86.9617 27.8265L82.544 27.1079C82.3721 26.7729 82.1933 26.4431 82.0128 26.1158L83.8693 22.0409C84.0594 21.6261 84.0203 21.1435 83.7669 20.7668C83.5143 20.3884 83.0864 20.1671 82.6299 20.1845L78.1462 20.3407C77.9145 20.0508 77.6784 19.7635 77.438 19.4814L78.4682 15.114C78.5723 14.6705 78.4413 14.2062 78.1184 13.8842C77.7981 13.5631 77.3329 13.4303 76.8894 13.5344L72.5229 14.5638C72.24 14.3242 71.9527 14.0873 71.6619 13.8555L71.819 9.37185C71.8364 8.91792 71.6151 8.48656 71.2366 8.23487C70.8574 7.98143 70.3774 7.94324 69.9634 8.13158L65.8894 9.98894C65.5604 9.80841 65.2306 9.62962 64.8973 9.4569L64.1769 5.0383C64.104 4.59045 63.8037 4.2103 63.3837 4.03671C62.9645 3.86226 62.4836 3.91868 62.1148 4.18426L58.4825 6.79758C58.1249 6.68388 57.7656 6.57453 57.4028 6.47038L55.8362 2.28003C55.6774 1.85302 55.3094 1.5397 54.8624 1.45117C54.4163 1.36351 53.9571 1.51192 53.6473 1.84347L50.5905 5.12336C50.2216 5.08256 49.8501 5.04524 49.4795 5.01487L47.1188 1.20034C46.8801 0.81411 46.4574 0.578903 46.0026 0.578903C45.5478 0.578903 45.1251 0.81411 44.8873 1.20034L42.5266 5.01487C42.1551 5.04524 41.7836 5.08256 41.4147 5.12336L38.3571 1.84347C38.0472 1.51192 37.5872 1.36351 37.142 1.45117C36.695 1.54056 36.327 1.85302 36.1682 2.28003L34.6015 6.47038C34.2388 6.57453 33.8794 6.68475 33.521 6.79758L29.8896 4.18426C29.5207 3.91781 29.0399 3.86139 28.6198 4.03671C28.2006 4.2103 27.8994 4.59045 27.8265 5.0383L27.1061 9.4569C26.7729 9.62962 26.4431 9.80754 26.1141 9.98894L22.0401 8.13158C21.6261 7.94238 21.1435 7.98143 20.7668 8.23487C20.3884 8.48656 20.1671 8.91792 20.1845 9.37185L20.3407 13.8555C20.0508 14.0873 19.7635 14.3242 19.4797 14.5638L15.1132 13.5344C14.6697 13.4311 14.2045 13.5631 13.8833 13.8842C13.5605 14.2062 13.4294 14.6705 13.5335 15.114L14.562 19.4814C14.3234 19.7644 14.0873 20.0508 13.8555 20.3407L9.37185 20.1845C8.91966 20.1714 8.48743 20.3884 8.23487 20.7668C7.98143 21.1435 7.94324 21.6261 8.13158 22.0409L9.98894 26.1158C9.80841 26.4431 9.62962 26.7729 9.45691 27.1079L5.03917 27.8265C4.59045 27.8994 4.21204 28.1997 4.03758 28.6198C3.864 29.0408 3.92041 29.5207 4.18513 29.8896L6.79845 33.5192C6.68475 33.8777 6.57453 34.2379 6.47038 34.6007L2.28004 36.1673C1.85475 36.3261 1.54143 36.6941 1.45291 37.1411C1.36438 37.5872 1.51279 38.0463 1.84521 38.3571L5.12336 41.4139C5.08257 41.7828 5.04611 42.1542 5.01487 42.5248L1.20121 44.8856C0.81498 45.1243 0.579773 45.5461 0.579773 46.0017C0.579773 46.4574 0.81498 46.8792 1.20121 47.117L5.01487 49.4778C5.04611 49.8492 5.08257 50.2198 5.12336 50.5887L1.84521 53.6464C1.51279 53.9563 1.36438 54.4163 1.45291 54.8615C1.54143 55.3085 1.85475 55.6756 2.28004 55.8353L6.47038 57.4019C6.57453 57.7647 6.68475 58.1249 6.79845 58.4834L4.18513 62.1139C3.91955 62.4836 3.86313 62.9636 4.03758 63.3828C4.21204 63.8037 4.59132 64.104 5.04004 64.1761L9.45691 64.8947C9.62962 65.2297 9.80668 65.5595 9.98894 65.8885L8.13158 69.9617C7.94238 70.3757 7.98143 70.8574 8.23487 71.2358C8.4883 71.6151 8.91966 71.8364 9.37185 71.8182L13.8538 71.6611C14.0873 71.9527 14.3225 72.2382 14.562 72.522L13.5335 76.8903C13.4294 77.3329 13.5605 77.7955 13.8833 78.1175C14.2036 78.4413 14.6697 78.5706 15.1132 78.4665L19.4797 77.438C19.7635 77.6792 20.0508 77.9136 20.3407 78.1445L20.1845 82.629C20.1671 83.0829 20.3884 83.5134 20.7668 83.7669C21.1435 84.0194 21.6261 84.0576 22.0401 83.8684L26.1141 82.0119C26.4422 82.1942 26.772 82.3713 27.1061 82.544L27.8265 86.96C27.8994 87.4096 28.1997 87.7897 28.6198 87.9624C29.039 88.1369 29.5207 88.0805 29.8896 87.8157L33.5192 85.2007C33.8777 85.3144 34.2379 85.4255 34.6007 85.5296L36.1673 89.7182C36.3261 90.1435 36.6941 90.4586 37.1411 90.5454C37.5872 90.6356 38.0463 90.4863 38.3562 90.1531L41.4139 86.8749C41.7828 86.9174 42.1542 86.953 42.5257 86.986L44.8864 90.7997C45.1243 91.1842 45.5469 91.4211 46.0017 91.4211C46.4565 91.4211 46.8792 91.185 47.1179 90.7997L49.4786 86.986C49.8501 86.953 50.2207 86.9174 50.5896 86.8749L53.6464 90.1531C53.9563 90.4863 54.4163 90.6356 54.8615 90.5454C55.3085 90.4577 55.6765 90.1435 55.8353 89.7182L57.4019 85.5296C57.7647 85.4255 58.1249 85.3144 58.4834 85.2007L62.1139 87.8157C62.4828 88.0805 62.9636 88.1369 63.3828 87.9624C63.8029 87.7897 64.1032 87.4087 64.1761 86.96L64.8964 82.544C65.2297 82.3713 65.5595 82.1916 65.8885 82.0119L69.9625 83.8684C70.3765 84.0576 70.8582 84.0194 71.2358 83.7669C71.6142 83.5134 71.8346 83.0838 71.8182 82.629L71.6619 78.1445C71.9518 77.9127 72.2391 77.6792 72.522 77.438L76.8886 78.4665C77.3321 78.5706 77.7973 78.4413 78.1175 78.1175C78.4404 77.7955 78.5715 77.3329 78.4673 76.8903L77.4388 72.522C77.6784 72.2382 77.9145 71.9527 78.1453 71.6611L82.629 71.8182C83.0812 71.8364 83.5134 71.6151 83.766 71.2358C84.0194 70.8574 84.0585 70.3757 83.8684 69.9617L82.0119 65.8885C82.1933 65.5595 82.3712 65.2297 82.5431 64.8947L86.9608 64.1761C87.4104 64.104 87.7888 63.8037 87.9624 63.3828C88.136 62.9636 88.0813 62.4836 87.8149 62.1139L85.2015 58.4834C85.3144 58.1249 85.4246 57.7647 85.5296 57.4019L89.7191 55.8353C90.1452 55.6756 90.4594 55.3085 90.5462 54.8615C90.6365 54.4154 90.4872 53.9563 90.1539 53.6464L86.8766 50.5887C86.9166 50.2198 86.953 49.8484 86.9851 49.4778L90.7988 47.117C91.185 46.8792 91.4202 46.4565 91.4202 46.0017C91.4202 45.5469 91.1859 45.1243 90.7997 44.8856ZM63.2049 73.3119C62.8924 74.7726 63.8185 76.2081 65.2749 76.5223C66.7304 76.8339 68.1659 75.9043 68.4784 74.4462C68.7908 72.9881 67.863 71.55 66.4066 71.2384C64.9511 70.9242 63.5164 71.8529 63.2049 73.3119ZM61.0585 69.6501C61.3432 68.3187 62.6503 67.4733 63.9791 67.758L69.6857 68.9844L69.7469 68.9012C75.7854 60.6954 77.4448 58.4404 79.212 45.7084C79.212 44.5948 79.1565 43.496 79.0506 42.4085L72.9248 39.6876C71.6845 39.1365 71.1238 37.6818 71.6732 36.4381L74.855 29.2517C70.1031 20.9343 61.8578 14.8719 52.1189 13.0588L47.4711 17.5043C46.4886 18.4443 44.9333 18.4078 43.9942 17.4245L39.8403 13.0666C32.5151 14.4414 22.5 19 17.5 30L20.0404 36.3088C20.5915 37.5525 20.0308 39.0071 18.7897 39.5583L12.9789 42.1403C12.854 43.3112 12.7889 44.5028 12.7889 45.7084C12.7889 48.8668 16.1434 63.3828 22.1572 68.8238L27.7354 67.6261C29.0633 67.3405 30.3704 68.1876 30.6551 69.5173L32.0082 75.8358C36.261 77.8129 41.0016 78.9186 46 78.9186C50.8864 78.9186 55.5263 77.865 59.7045 75.9686L61.0585 69.6501ZM23.2361 74.3169C23.5494 75.7759 24.9832 76.7046 26.4396 76.3904C27.8951 76.0779 28.822 74.6406 28.5105 73.1825C28.198 71.7235 26.7633 70.7949 25.3069 71.1065C23.8506 71.4206 22.9245 72.8553 23.2361 74.3169ZM14.7712 38.2034C16.133 37.6002 16.7475 36.0024 16.1434 34.6389C15.5393 33.2745 13.9467 32.66 12.584 33.2641C11.2223 33.869 10.6078 35.4643 11.2118 36.8286C11.8159 38.193 13.4094 38.8084 14.7712 38.2034ZM47.8096 9.44736C46.7794 8.36939 45.0722 8.3286 43.996 9.35969C42.918 10.3908 42.8789 12.0997 43.9066 13.1786C44.9368 14.2583 46.644 14.2982 47.7202 13.2671C48.7991 12.2369 48.8381 10.5279 47.8096 9.44736ZM79.1295 33.396C77.7678 32.7911 76.1743 33.4064 75.5711 34.7699C74.9678 36.1352 75.5823 37.7313 76.9424 38.3354C78.305 38.9403 79.8985 38.3249 80.5017 36.9606C81.1058 35.5971 80.4913 34.0001 79.1295 33.396Z" fill="black"/>
<path d="M22.1572 68.8238L22.5594 68.5267L22.5245 68.4795L22.4797 68.4416L22.1572 68.8238ZM69.6857 68.9844L69.2829 68.688L69.6857 68.9844ZM22.4797 68.4416C21.8962 67.9494 21.4701 67.597 21.1699 67.3554C21.02 67.2347 20.8996 67.1401 20.8057 67.069C20.7587 67.0334 20.7169 67.0026 20.6805 66.9767C20.6451 66.9516 20.6096 66.9275 20.5764 66.9074C20.5599 66.8974 20.5386 66.885 20.5145 66.8731C20.5022 66.8671 20.4861 66.8596 20.4671 66.8521C20.4494 66.8452 20.4209 66.835 20.3852 66.8272C20.3667 66.8232 20.3425 66.8189 20.314 66.8167C20.2859 66.8145 20.2475 66.8139 20.2027 66.8203C20.1577 66.8268 20.0995 66.8414 20.0379 66.874C19.974 66.9079 19.9133 66.9578 19.8653 67.0247C19.7691 67.1584 19.7664 67.2957 19.7726 67.3646C19.776 67.4019 19.783 67.433 19.7893 67.4558C19.7958 67.479 19.803 67.4986 19.8091 67.5136C19.8212 67.543 19.8338 67.5663 19.8425 67.5813C19.8518 67.5972 19.8606 67.6107 19.8678 67.6211C19.8818 67.6416 19.8958 67.6595 19.907 67.6732C19.9294 67.7007 19.9546 67.7287 19.9787 67.7546C20.0278 67.8071 20.0908 67.8702 20.1612 67.9384C20.2324 68.0073 20.3145 68.0848 20.4032 68.1669C20.5805 68.331 20.7873 68.5162 20.991 68.6926C21.194 68.8683 21.398 69.0387 21.5688 69.1716C21.6537 69.2377 21.7355 69.2984 21.8077 69.347C21.8438 69.3713 21.882 69.3956 21.9201 69.417C21.9393 69.4278 21.9611 69.4393 21.9846 69.4502C22.0071 69.4607 22.0374 69.4736 22.0729 69.4845C22.091 69.4901 22.1135 69.4961 22.1392 69.5009C22.1646 69.5056 22.1979 69.51 22.2369 69.5102C22.3088 69.5105 22.4473 69.4956 22.5741 69.3879C22.6378 69.3338 22.6836 69.2682 22.713 69.1999C22.7413 69.1341 22.7514 69.0728 22.7541 69.0251C22.7569 68.9776 22.7528 68.937 22.7477 68.9067C22.7427 68.8759 22.7356 68.8494 22.7291 68.8285C22.7163 68.7878 22.7008 68.7536 22.6884 68.7289C22.6755 68.703 22.6617 68.6789 22.6486 68.6575C22.6227 68.615 22.5921 68.571 22.5594 68.5267L21.7551 69.1209C21.7777 69.1516 21.7899 69.1701 21.7952 69.1787C21.7977 69.1829 21.7967 69.1815 21.7937 69.1756C21.7914 69.1709 21.7831 69.1539 21.7749 69.1278C21.7706 69.1142 21.7652 69.0944 21.7611 69.0696C21.7571 69.0453 21.7533 69.0101 21.7558 68.9674C21.7583 68.9244 21.7675 68.8673 21.7943 68.8049C21.8221 68.7402 21.8658 68.6774 21.9267 68.6257C22.0482 68.5226 22.1789 68.5099 22.2407 68.5102C22.2746 68.5103 22.3024 68.5141 22.3216 68.5177C22.3412 68.5213 22.357 68.5257 22.3679 68.529C22.389 68.5355 22.4027 68.5418 22.4067 68.5437C22.4116 68.5459 22.4128 68.5468 22.4096 68.545C22.4029 68.5412 22.3888 68.5327 22.366 68.5174C22.3207 68.4869 22.259 68.4416 22.1828 68.3823C22.0313 68.2644 21.8419 68.1065 21.6456 67.9365C21.45 67.7672 21.2514 67.5893 21.0823 67.4329C20.9978 67.3547 20.9215 67.2826 20.857 67.2202C20.7918 67.1569 20.7421 67.1069 20.7094 67.0718C20.6926 67.0539 20.6846 67.0445 20.6826 67.0421C20.6816 67.0408 20.6856 67.0455 20.6919 67.0548C20.6953 67.0596 20.7008 67.068 20.7074 67.0793C20.7135 67.0898 20.724 67.1089 20.7346 67.1347C20.74 67.148 20.7466 67.1659 20.7527 67.1876C20.7586 67.2089 20.7653 67.2386 20.7686 67.2746C20.7746 67.341 20.7722 67.4763 20.6771 67.6086C20.6296 67.6747 20.5695 67.724 20.5065 67.7574C20.4458 67.7897 20.3885 67.8039 20.3447 67.8102C20.3011 67.8165 20.264 67.8158 20.2375 67.8138C20.2104 67.8117 20.1879 67.8077 20.1713 67.8041C20.1392 67.797 20.1151 67.7882 20.1024 67.7832C20.0885 67.7778 20.0781 67.7729 20.0722 67.77C20.061 67.7645 20.0554 67.7609 20.0575 67.7622C20.0616 67.7647 20.0752 67.7734 20.1018 67.7922C20.1272 67.8103 20.1602 67.8345 20.2017 67.866C20.2849 67.9291 20.397 68.0169 20.5429 68.1344C20.8345 68.3691 21.254 68.716 21.8348 69.206L22.4797 68.4416ZM69.2829 68.688C69.2498 68.733 69.22 68.7756 69.1947 68.815C69.182 68.8348 69.1692 68.8556 69.1572 68.8769C69.1456 68.8976 69.1322 68.923 69.1199 68.9514C69.1136 68.9659 69.1066 68.9833 69.1 69.0029C69.0936 69.0222 69.0862 69.0474 69.0805 69.077C69.075 69.1059 69.0695 69.1469 69.0712 69.1959C69.073 69.2447 69.0823 69.3131 69.1154 69.3873C69.1322 69.425 69.1548 69.4634 69.1844 69.5C69.2141 69.5368 69.2487 69.569 69.2869 69.5959C69.3638 69.6501 69.4425 69.6739 69.5047 69.6833C69.5654 69.6924 69.6168 69.6891 69.6521 69.6843C69.6883 69.6795 69.7185 69.6716 69.7406 69.6648C69.7837 69.6515 69.8184 69.6351 69.8406 69.6238C69.8645 69.6116 69.886 69.599 69.9039 69.5878C69.9394 69.5657 69.9745 69.5407 70.0066 69.5167C70.0712 69.4683 70.1452 69.4075 70.2222 69.3414C70.3773 69.2083 70.5655 69.036 70.7543 68.8575C70.9439 68.6784 71.1379 68.4895 71.3055 68.3217C71.3893 68.2378 71.4672 68.1585 71.535 68.0878C71.6022 68.0178 71.6621 67.9537 71.7089 67.9007C71.732 67.8745 71.7551 67.8475 71.7755 67.8218C71.7857 67.809 71.7974 67.7936 71.8092 67.7767C71.8152 67.7682 71.8222 67.7578 71.8295 67.746C71.8365 67.7347 71.8459 67.7187 71.8556 67.6994C71.8643 67.6819 71.8793 67.6499 71.8912 67.6082C71.8974 67.5866 71.9046 67.5562 71.9084 67.5192C71.9121 67.483 71.9135 67.4303 71.9011 67.3686C71.8883 67.3048 71.8599 67.2284 71.803 67.1563C71.7813 67.1306 71.7332 67.084 71.7069 67.0633C71.6807 67.0451 71.6272 67.0151 71.6 67.003C71.531 66.9745 71.4685 66.9666 71.424 66.9652C71.3793 66.9638 71.3421 66.9686 71.3161 66.9733C71.2895 66.9782 71.2673 66.9844 71.2508 66.9897C71.234 66.9951 71.2196 67.0007 71.2082 67.0054C71.186 67.0147 71.1677 67.0241 71.1551 67.031C71.1302 67.0445 71.1088 67.0584 71.0938 67.0685C71.0631 67.0893 71.0306 67.1139 70.9992 67.1386C70.9664 67.1644 70.9287 67.1952 70.8863 67.2308C70.8014 67.3019 70.6918 67.3968 70.5544 67.5183C70.2796 67.7617 69.8869 68.118 69.3464 68.6171L70.0249 69.3517C70.563 68.8547 70.95 68.5038 71.2173 68.2671C71.3511 68.1487 71.4532 68.0604 71.5284 67.9974C71.566 67.9659 71.5954 67.9419 71.6179 67.9243C71.629 67.9155 71.6377 67.9089 71.6442 67.904C71.6509 67.899 71.6539 67.897 71.6539 67.897C71.6537 67.8971 71.6521 67.8982 71.6491 67.9001C71.6462 67.9018 71.6406 67.9053 71.6328 67.9095C71.6255 67.9135 71.612 67.9205 71.5938 67.9281C71.5844 67.932 71.5719 67.9369 71.5568 67.9417C71.5421 67.9465 71.5214 67.9523 71.4962 67.9569C71.4717 67.9614 71.4357 67.9661 71.3921 67.9647C71.3487 67.9633 71.2871 67.9556 71.2189 67.9275C71.1921 67.9155 71.1389 67.8857 71.113 67.8678C71.0871 67.8473 71.0393 67.801 71.0178 67.7756C70.9614 67.704 70.9333 67.6284 70.9207 67.5655C70.9085 67.5047 70.9099 67.453 70.9135 67.4179C70.9172 67.3821 70.9241 67.353 70.9299 67.3329C70.941 67.294 70.9545 67.2655 70.9613 67.2519C70.969 67.2365 70.9759 67.225 70.9798 67.2187C70.984 67.2119 70.9874 67.207 70.9892 67.2044C70.9926 67.1995 70.9939 67.1981 70.9915 67.201C70.9868 67.207 70.9767 67.2191 70.9596 67.2385C70.9258 67.2767 70.8765 67.3298 70.8136 67.3953C70.7514 67.4601 70.6782 67.5346 70.5979 67.615C70.4372 67.7759 70.2502 67.9581 70.0675 68.1307C69.8841 68.304 69.7089 68.4641 69.5709 68.5825C69.5014 68.6422 69.4464 68.6869 69.4074 68.7161C69.3876 68.7309 69.3772 68.7377 69.3744 68.7395C69.3732 68.7402 69.3774 68.7375 69.386 68.7331C69.3928 68.7297 69.4142 68.719 69.4458 68.7092C69.4623 68.7042 69.4874 68.6975 69.5189 68.6933C69.5496 68.6891 69.5969 68.6859 69.654 68.6945C69.7127 68.7033 69.7883 68.7259 69.8629 68.7785C69.8998 68.8045 69.9333 68.8357 69.9621 68.8713C69.9907 68.9068 70.0125 68.9438 70.0287 68.98C70.0605 69.0513 70.0691 69.1161 70.0706 69.1608C70.0722 69.2056 70.0672 69.2418 70.0627 69.2651C70.0581 69.2893 70.0524 69.3083 70.0482 69.3208C70.0438 69.3337 70.0398 69.3437 70.037 69.35C70.0317 69.3622 70.028 69.3686 70.0286 69.3675C70.0289 69.3671 70.031 69.3633 70.036 69.3555C70.0462 69.3398 70.0629 69.3154 70.0884 69.2807L69.2829 68.688ZM69.3442 68.6049C69.3239 68.6323 69.3032 68.6605 69.2829 68.688L70.0884 69.2807C70.109 69.2527 70.1291 69.2254 70.1496 69.1976L69.3442 68.6049ZM90.7997 44.8856L90.2733 45.7359L90.274 45.7363L90.7997 44.8856ZM86.986 42.5248L85.9897 42.611L86.0329 43.111L86.4597 43.3751L86.986 42.5248ZM86.8775 41.4139L86.1954 40.6826L85.8295 41.024L85.8833 41.5215L86.8775 41.4139ZM90.1548 38.3571L89.4729 37.6256L89.4727 37.6258L90.1548 38.3571ZM90.5471 37.1411L89.5658 37.3335L89.567 37.3398L90.5471 37.1411ZM89.72 36.1673L89.3697 37.1039L89.3707 37.1043L89.72 36.1673ZM85.5305 34.6007L84.5699 34.8787L84.7096 35.3614L85.1802 35.5373L85.5305 34.6007ZM85.2024 33.5192L84.3909 32.9349L84.0981 33.3416L84.2486 33.8195L85.2024 33.5192ZM87.8157 29.8896L87.0051 29.304L87.0042 29.3053L87.8157 29.8896ZM87.9633 28.6198L88.8878 28.2386L88.8872 28.2372L87.9633 28.6198ZM86.9617 27.8265L87.1239 26.8398L87.1223 26.8395L86.9617 27.8265ZM82.544 27.1079L81.6542 27.5643L81.8848 28.0138L82.3834 28.0949L82.544 27.1079ZM82.0128 26.1158L81.1028 25.7013L80.8943 26.1587L81.1372 26.5989L82.0128 26.1158ZM83.8693 22.0409L82.9602 21.6244L82.9593 21.6264L83.8693 22.0409ZM83.7669 20.7668L82.9351 21.322L82.9372 21.3251L83.7669 20.7668ZM82.6299 20.1845L82.6647 21.1839L82.6679 21.1837L82.6299 20.1845ZM78.1462 20.3407L77.3651 20.9651L77.6788 21.3576L78.181 21.3401L78.1462 20.3407ZM77.438 19.4814L76.4647 19.2518L76.3484 19.7447L76.6769 20.1301L77.438 19.4814ZM78.4682 15.114L79.4415 15.3436L79.4417 15.3426L78.4682 15.114ZM78.1184 13.8842L77.4103 14.5903L77.4123 14.5922L78.1184 13.8842ZM76.8894 13.5344L76.6608 12.5609L76.66 12.5611L76.8894 13.5344ZM72.5229 14.5638L71.8768 15.327L72.2616 15.6528L72.7523 15.5371L72.5229 14.5638ZM71.6619 13.8555L70.6625 13.8205L70.6449 14.3237L71.0387 14.6376L71.6619 13.8555ZM71.819 9.37185L70.8197 9.33363L70.8196 9.33683L71.819 9.37185ZM71.2366 8.23487L70.6811 9.06633L70.6828 9.0675L71.2366 8.23487ZM69.9634 8.13158L69.5493 7.22135L69.5486 7.22168L69.9634 8.13158ZM65.8894 9.98894L65.4082 10.8656L65.8479 11.1069L66.3042 10.8988L65.8894 9.98894ZM64.8973 9.4569L63.9104 9.61781L63.9912 10.1136L64.4372 10.3448L64.8973 9.4569ZM64.1769 5.0383L63.1899 5.19897L63.19 5.19921L64.1769 5.0383ZM63.3837 4.03671L62.9995 4.95996L63.0018 4.96092L63.3837 4.03671ZM62.1148 4.18426L62.6988 4.996L62.6991 4.9958L62.1148 4.18426ZM58.4825 6.79758L58.1795 7.75057L58.6585 7.90288L59.0665 7.60932L58.4825 6.79758ZM57.4028 6.47038L56.4661 6.82056L56.6426 7.29252L57.1269 7.43155L57.4028 6.47038ZM55.8362 2.28003L54.8989 2.62865L54.8995 2.63022L55.8362 2.28003ZM54.8624 1.45117L55.0567 0.47022L55.0552 0.469931L54.8624 1.45117ZM53.6473 1.84347L52.9167 1.16067L52.9157 1.16168L53.6473 1.84347ZM50.5905 5.12336L50.4805 6.1173L50.9796 6.17249L51.322 5.80515L50.5905 5.12336ZM49.4795 5.01487L48.6292 5.54112L48.8948 5.97029L49.3978 6.01152L49.4795 5.01487ZM47.1188 1.20034L46.2681 1.72603L46.2684 1.72659L47.1188 1.20034ZM44.8873 1.20034L45.7377 1.72659L45.7388 1.72465L44.8873 1.20034ZM42.5266 5.01487L42.6081 6.01154L43.1112 5.97039L43.3769 5.54112L42.5266 5.01487ZM41.4147 5.12336L40.6833 5.80525L41.0257 6.17248L41.5247 6.1173L41.4147 5.12336ZM38.3571 1.84347L39.0885 1.16157L39.0877 1.16067L38.3571 1.84347ZM37.142 1.45117L36.9488 0.469998L36.9458 0.470586L37.142 1.45117ZM36.1682 2.28003L37.1048 2.63022L37.1054 2.62865L36.1682 2.28003ZM34.6015 6.47038L34.8775 7.43155L35.3618 7.29252L35.5382 6.82056L34.6015 6.47038ZM33.521 6.79758L32.9369 7.60925L33.3434 7.90184L33.8212 7.75144L33.521 6.79758ZM29.8896 4.18426L29.304 4.99489L29.3055 4.99593L29.8896 4.18426ZM28.6198 4.03671L29.0024 4.96064L29.005 4.95957L28.6198 4.03671ZM27.8265 5.0383L28.8135 5.19921L28.8135 5.19897L27.8265 5.0383ZM27.1061 9.4569L27.5663 10.3448L28.0123 10.1136L28.0931 9.61781L27.1061 9.4569ZM26.1141 9.98894L25.6993 10.8988L26.1567 11.1074L26.597 10.8646L26.1141 9.98894ZM22.0401 8.13158L21.6244 9.0411L21.6252 9.04148L22.0401 8.13158ZM20.7668 8.23487L21.3207 9.06751L21.3251 9.06456L20.7668 8.23487ZM20.1845 9.37185L21.1839 9.33702L21.1837 9.33363L20.1845 9.37185ZM20.3407 13.8555L20.9651 14.6366L21.3576 14.3229L21.3401 13.8207L20.3407 13.8555ZM19.4797 14.5638L19.2502 15.5371L19.7401 15.6526L20.1247 15.328L19.4797 14.5638ZM15.1132 13.5344L15.3426 12.5611L15.34 12.5605L15.1132 13.5344ZM13.8833 13.8842L14.5895 14.5922L14.5904 14.5913L13.8833 13.8842ZM13.5335 15.114L12.56 15.3426L12.5602 15.3433L13.5335 15.114ZM14.562 19.4814L15.3264 20.1262L15.6507 19.7418L15.5354 19.2522L14.562 19.4814ZM13.8555 20.3407L13.8207 21.3401L14.3229 21.3576L14.6366 20.9651L13.8555 20.3407ZM9.37185 20.1845L9.40667 19.185L9.40063 19.1849L9.37185 20.1845ZM8.23487 20.7668L9.06456 21.3251L9.06662 21.322L8.23487 20.7668ZM8.13158 22.0409L7.22102 22.4543L7.22165 22.4557L8.13158 22.0409ZM9.98894 26.1158L10.8645 26.5989L11.1074 26.1586L10.8989 25.7011L9.98894 26.1158ZM9.45691 27.1079L9.61747 28.0949L10.1148 28.014L10.3457 27.5661L9.45691 27.1079ZM5.03917 27.8265L5.19954 28.8136L5.19973 28.8136L5.03917 27.8265ZM4.03758 28.6198L3.11405 28.2363L3.1131 28.2386L4.03758 28.6198ZM4.18513 29.8896L3.37269 30.4726L3.37359 30.4739L4.18513 29.8896ZM6.79845 33.5192L7.75165 33.8216L7.90356 33.3427L7.60999 32.9349L6.79845 33.5192ZM6.47038 34.6007L6.82056 35.5374L7.29252 35.3609L7.43155 34.8766L6.47038 34.6007ZM2.28004 36.1673L2.6299 37.1041L2.63022 37.104L2.28004 36.1673ZM1.45291 37.1411L2.43378 37.3357L2.43385 37.3354L1.45291 37.1411ZM1.84521 38.3571L1.16234 39.0876L1.16322 39.0884L1.84521 38.3571ZM5.12336 41.4139L6.1173 41.5238L6.17248 41.0249L5.80535 40.6825L5.12336 41.4139ZM5.01487 42.5248L5.54121 43.3751L5.96906 43.1103L6.01133 42.6088L5.01487 42.5248ZM1.20121 44.8856L1.7269 45.7363L1.72755 45.7359L1.20121 44.8856ZM1.20121 47.117L1.72755 46.2667L1.72552 46.2655L1.20121 47.117ZM5.01487 49.4778L6.01135 49.394L5.96916 48.8924L5.54121 48.6275L5.01487 49.4778ZM5.12336 50.5887L5.80545 51.32L6.17247 50.9776L6.1173 50.4788L5.12336 50.5887ZM1.84521 53.6464L2.52705 54.3779L2.5273 54.3777L1.84521 53.6464ZM1.45291 54.8615L2.43385 54.6672L2.43371 54.6665L1.45291 54.8615ZM2.28004 55.8353L1.92849 56.7715L1.92985 56.772L2.28004 55.8353ZM6.47038 57.4019L7.43155 57.126L7.29252 56.6417L6.82056 56.4652L6.47038 57.4019ZM6.79845 58.4834L7.61006 59.0676L7.90353 58.6599L7.75165 58.181L6.79845 58.4834ZM4.18513 62.1139L3.37353 61.5297L3.37295 61.5305L4.18513 62.1139ZM4.03758 63.3828L4.96139 62.9999L4.96083 62.9986L4.03758 63.3828ZM5.04004 64.1761L5.20063 63.1891L5.19855 63.1887L5.04004 64.1761ZM9.45691 64.8947L10.3457 64.4365L10.1148 63.9886L9.6175 63.9077L9.45691 64.8947ZM9.98894 65.8885L10.8988 66.3034L11.108 65.8447L10.8636 65.4038L9.98894 65.8885ZM8.13158 69.9617L9.0411 70.3773L9.04145 70.3766L8.13158 69.9617ZM8.23487 71.2358L9.06633 70.6802L9.06574 70.6793L8.23487 71.2358ZM9.37185 71.8182L9.33682 70.8188L9.33157 70.819L9.37185 71.8182ZM13.8538 71.6611L14.6345 71.0361L14.3206 70.6441L13.8188 70.6617L13.8538 71.6611ZM14.562 72.522L15.5354 72.7512L15.6507 72.2615L15.3262 71.877L14.562 72.522ZM13.5335 76.8903L12.5602 76.6611L12.5601 76.6613L13.5335 76.8903ZM13.8833 78.1175L14.5942 77.4142L14.5895 77.4095L13.8833 78.1175ZM15.1132 78.4665L15.3418 79.44L15.3424 79.4398L15.1132 78.4665ZM19.4797 77.438L20.1274 76.6761L19.7424 76.3487L19.2504 76.4646L19.4797 77.438ZM20.3407 78.1445L21.3401 78.1793L21.3576 77.676L20.9637 77.3622L20.3407 78.1445ZM20.1845 82.629L21.1837 82.6672L21.1838 82.6638L20.1845 82.629ZM20.7668 83.7669L21.3237 82.9363L21.3233 82.936L20.7668 83.7669ZM22.0401 83.8684L21.6254 82.9584L21.6244 82.9589L22.0401 83.8684ZM26.1141 82.0119L26.5998 81.1378L26.1586 80.8927L25.6994 81.102L26.1141 82.0119ZM27.1061 82.544L28.0931 82.383L28.0121 81.8866L27.5653 81.6556L27.1061 82.544ZM27.8265 86.96L28.8136 86.7999L28.8135 86.799L27.8265 86.96ZM28.6198 87.9624L29.004 87.0392L29.0001 87.0375L28.6198 87.9624ZM29.8896 87.8157L30.4726 88.6282L30.4741 88.6271L29.8896 87.8157ZM33.5192 85.2007L33.8216 84.2475L33.3425 84.0955L32.9347 84.3893L33.5192 85.2007ZM34.6007 85.5296L35.5373 85.1793L35.3608 84.7075L34.8766 84.5685L34.6007 85.5296ZM36.1673 89.7182L37.1041 89.3684L37.1039 89.3679L36.1673 89.7182ZM37.1411 90.5454L37.3394 89.5652L37.3317 89.5637L37.1411 90.5454ZM38.3562 90.1531L37.6249 89.471L37.6238 89.4722L38.3562 90.1531ZM41.4139 86.8749L41.5284 85.8815L41.0269 85.8237L40.6826 86.1928L41.4139 86.8749ZM42.5257 86.986L43.376 86.4597L43.1126 86.0342L42.6141 85.9899L42.5257 86.986ZM44.8864 90.7997L45.7369 90.2736L45.7367 90.2733L44.8864 90.7997ZM47.1179 90.7997L47.968 91.3262L47.9682 91.326L47.1179 90.7997ZM49.4786 86.986L49.3902 85.9899L48.8918 86.0342L48.6284 86.4597L49.4786 86.986ZM50.5896 86.8749L51.3209 86.1929L50.9766 85.8237L50.475 85.8815L50.5896 86.8749ZM53.6464 90.1531L54.3788 89.4722L54.3778 89.4711L53.6464 90.1531ZM54.8615 90.5454L54.6691 89.564L54.6628 89.5653L54.8615 90.5454ZM55.8353 89.7182L54.8987 89.3679L54.8985 89.3684L55.8353 89.7182ZM57.4019 85.5296L57.126 84.5685L56.6418 84.7075L56.4653 85.1793L57.4019 85.5296ZM58.4834 85.2007L59.0678 84.3893L58.66 84.0955L58.181 84.2475L58.4834 85.2007ZM62.1139 87.8157L61.5294 88.6272L61.5308 88.6282L62.1139 87.8157ZM63.3828 87.9624L63.0025 87.0375L62.9986 87.0392L63.3828 87.9624ZM64.1761 86.96L63.1891 86.799L63.189 86.7996L64.1761 86.96ZM64.8964 82.544L64.4363 81.6561L63.9904 81.8872L63.9095 82.383L64.8964 82.544ZM65.8885 82.0119L66.3032 81.102L65.8481 80.8946L65.4091 81.1343L65.8885 82.0119ZM69.9625 83.8684L70.3782 82.9589L70.3772 82.9584L69.9625 83.8684ZM71.2358 83.7669L71.7918 84.598L71.7922 84.5977L71.2358 83.7669ZM71.8182 82.629L70.8188 82.6638L70.8188 82.6653L71.8182 82.629ZM71.6619 78.1445L71.0375 77.3634L70.645 77.6771L70.6625 78.1793L71.6619 78.1445ZM72.522 77.438L72.7513 76.4646L72.2584 76.3485L71.8732 76.6771L72.522 77.438ZM76.8886 78.4665L76.6593 79.4398L76.66 79.44L76.8886 78.4665ZM78.1175 78.1175L77.4114 77.4095L77.4066 77.4143L78.1175 78.1175ZM78.4673 76.8903L79.4407 76.6613L79.4407 76.6611L78.4673 76.8903ZM77.4388 72.522L76.6746 71.877L76.3501 72.2615L76.4654 72.7512L77.4388 72.522ZM78.1453 71.6611L78.1803 70.6617L77.6751 70.644L77.3613 71.0404L78.1453 71.6611ZM82.629 71.8182L82.6693 70.819L82.664 70.8188L82.629 71.8182ZM83.766 71.2358L82.9351 70.6793L82.9337 70.6815L83.766 71.2358ZM83.8684 69.9617L82.9585 70.3764L82.9596 70.3789L83.8684 69.9617ZM82.0119 65.8885L81.1362 65.4056L80.8935 65.8458L81.102 66.3032L82.0119 65.8885ZM82.5431 64.8947L82.3825 63.9077L81.8839 63.9888L81.6533 64.4383L82.5431 64.8947ZM86.9608 64.1761L86.8026 63.1887L86.8003 63.1891L86.9608 64.1761ZM87.9624 63.3828L87.0385 63.0002L87.0379 63.0016L87.9624 63.3828ZM87.8149 62.1139L87.0033 62.6981L87.0036 62.6985L87.8149 62.1139ZM85.2015 58.4834L84.2477 58.1831L84.0973 58.661L84.3899 59.0676L85.2015 58.4834ZM85.5296 57.4019L85.1794 56.4653L84.7088 56.6412L84.5691 57.1239L85.5296 57.4019ZM89.7191 55.8353L90.0693 56.772L90.07 56.7717L89.7191 55.8353ZM90.5462 54.8615L89.566 54.6632L89.5646 54.6709L90.5462 54.8615ZM90.1539 53.6464L89.4717 54.3776L89.473 54.3788L90.1539 53.6464ZM86.8766 50.5887L85.8824 50.4811L85.8286 50.9786L86.1945 51.3199L86.8766 50.5887ZM86.9851 49.4778L86.4588 48.6275L86.0322 48.8916L85.9889 49.3914L86.9851 49.4778ZM90.7988 47.117L90.2745 46.2655L90.2724 46.2667L90.7988 47.117ZM65.2749 76.5223L65.064 77.4998L65.0655 77.5001L65.2749 76.5223ZM63.2049 73.3119L64.1827 73.521L64.1828 73.5207L63.2049 73.3119ZM66.4066 71.2384L66.1956 72.2159L66.1974 72.2162L66.4066 71.2384ZM63.9791 67.758L64.1892 66.7803L64.1885 66.7802L63.9791 67.758ZM61.0585 69.6501L62.0363 69.8596L62.0364 69.8592L61.0585 69.6501ZM59.7045 75.9686L60.1178 76.8792L60.5767 76.6709L60.6823 76.1781L59.7045 75.9686ZM32.0082 75.8358L31.0304 76.0452L31.1347 76.5325L31.5866 76.7426L32.0082 75.8358ZM30.6551 69.5173L29.6773 69.7266L29.6773 69.7267L30.6551 69.5173ZM27.7354 67.6261L27.9453 68.6038L27.9456 68.6037L27.7354 67.6261ZM22.1572 68.8238L21.4863 69.5653L21.8663 69.9091L22.3672 69.8015L22.1572 68.8238ZM69.6857 68.9844L69.4756 69.9621L70.1078 70.0979L70.4911 69.577L69.6857 68.9844ZM26.4396 76.3904L26.2297 75.4127L26.2287 75.4129L26.4396 76.3904ZM23.2361 74.3169L22.2581 74.5254L22.2584 74.5269L23.2361 74.3169ZM25.3069 71.1065L25.0977 70.1286L25.0961 70.1289L25.3069 71.1065ZM28.5105 73.1825L29.4884 72.9736L29.4883 72.9731L28.5105 73.1825ZM16.1434 34.6389L15.229 35.0437L15.2291 35.0439L16.1434 34.6389ZM14.7712 38.2034L14.3662 37.2891L14.3652 37.2895L14.7712 38.2034ZM12.584 33.2641L12.1788 32.3499L12.1781 32.3502L12.584 33.2641ZM12.9789 42.1403L12.5729 41.2265L12.0458 41.4607L11.9846 42.0342L12.9789 42.1403ZM18.7897 39.5583L18.3839 38.6443L18.3836 38.6444L18.7897 39.5583ZM20.0404 36.3088L19.1128 36.6823L19.1192 36.6982L19.1261 36.7139L20.0404 36.3088ZM17.5 30L16.5896 29.5862L16.4124 29.9762L16.5724 30.3735L17.5 30ZM79.212 45.7084L80.2025 45.8459L80.212 45.7774V45.7084H79.212ZM39.8403 13.0666L40.5642 12.3766L40.1895 11.9836L39.6559 12.0838L39.8403 13.0666ZM43.9942 17.4245L43.2704 18.1144L43.271 18.1151L43.9942 17.4245ZM47.4711 17.5043L46.7799 16.7816L46.7798 16.7817L47.4711 17.5043ZM52.1189 13.0588L52.3019 12.0757L51.798 11.9819L51.4277 12.3361L52.1189 13.0588ZM74.855 29.2517L75.7694 29.6565L75.974 29.1944L75.7233 28.7556L74.855 29.2517ZM71.6732 36.4381L70.7588 36.0332L70.7585 36.034L71.6732 36.4381ZM72.9248 39.6876L72.5187 40.6014L72.5188 40.6015L72.9248 39.6876ZM79.0506 42.4085L80.0459 42.3116L79.9894 41.7313L79.4565 41.4946L79.0506 42.4085ZM43.996 9.35969L44.6872 10.0823L44.6878 10.0818L43.996 9.35969ZM47.8096 9.44736L48.534 8.75792L48.5326 8.75644L47.8096 9.44736ZM47.7202 13.2671L47.0296 12.5439L47.0284 12.545L47.7202 13.2671ZM43.9066 13.1786L43.1825 13.8683L43.1831 13.8689L43.9066 13.1786ZM75.5711 34.7699L74.6565 34.3654L74.6564 34.3658L75.5711 34.7699ZM79.1295 33.396L78.7236 34.3099L78.7241 34.3101L79.1295 33.396ZM80.5017 36.9606L79.5874 36.5555L79.5871 36.5562L80.5017 36.9606ZM76.9424 38.3354L76.5365 39.2493L76.5366 39.2493L76.9424 38.3354ZM69.7469 68.9012L68.9414 68.3085L68.9414 68.3085L69.7469 68.9012ZM91.326 44.0353L87.5123 41.6746L86.4597 43.3751L90.2733 45.7359L91.326 44.0353ZM87.9823 42.4387C87.9495 42.0594 87.9123 41.6816 87.8717 41.3063L85.8833 41.5215C85.9225 41.8839 85.9583 42.2473 85.9897 42.611L87.9823 42.4387ZM87.5596 42.1452L90.8369 39.0883L89.4727 37.6258L86.1954 40.6826L87.5596 42.1452ZM90.8367 39.0885C91.4217 38.5431 91.6872 37.732 91.5272 36.9424L89.567 37.3398C89.5875 37.4407 89.5545 37.5496 89.4729 37.6256L90.8367 39.0885ZM91.5284 36.9486C91.3736 36.1596 90.8203 35.5102 90.0692 35.2302L89.3707 37.1043C89.4719 37.142 89.5452 37.2287 89.5658 37.3335L91.5284 36.9486ZM90.0702 35.2306L85.8807 33.664L85.1802 35.5373L89.3697 37.1039L90.0702 35.2306ZM86.4911 34.3226C86.3833 33.9503 86.2707 33.5824 86.1563 33.219L84.2486 33.8195C84.3598 34.173 84.4677 34.5255 84.5699 34.8787L86.4911 34.3226ZM86.014 34.1035L88.6273 30.4739L87.0042 29.3053L84.3909 32.9349L86.014 34.1035ZM88.6264 30.4751C89.0976 29.8228 89.1921 28.9767 88.8878 28.2386L87.0388 29.001C87.0816 29.1048 87.0668 29.2186 87.0051 29.304L88.6264 30.4751ZM88.8872 28.2372C88.5808 27.4974 87.9128 26.9695 87.1239 26.8398L86.7995 28.8133C86.908 28.8311 86.9985 28.9038 87.0394 29.0024L88.8872 28.2372ZM87.1223 26.8395L82.7045 26.1209L82.3834 28.0949L86.8011 28.8136L87.1223 26.8395ZM83.4337 26.6515C83.2552 26.3035 83.071 25.9638 82.8884 25.6328L81.1372 26.5989C81.3157 26.9224 81.489 27.2422 81.6542 27.5643L83.4337 26.6515ZM82.9228 26.5304L84.7793 22.4555L82.9593 21.6264L81.1028 25.7013L82.9228 26.5304ZM84.7784 22.4575C85.1129 21.7273 85.0452 20.8754 84.5966 20.2086L82.9372 21.3251C82.9954 21.4116 83.0058 21.5248 82.9602 21.6244L84.7784 22.4575ZM84.5986 20.2117C84.155 19.5471 83.3994 19.1545 82.5919 19.1852L82.6679 21.1837C82.7735 21.1797 82.8736 21.2298 82.9351 21.322L84.5986 20.2117ZM82.5951 19.1851L78.1114 19.3413L78.181 21.3401L82.6647 21.1838L82.5951 19.1851ZM78.9273 19.7163C78.69 19.4194 78.4472 19.1239 78.199 18.8328L76.6769 20.1301C76.9096 20.4031 77.1389 20.6822 77.3651 20.9651L78.9273 19.7163ZM78.4112 19.711L79.4415 15.3436L77.4949 14.8844L76.4647 19.2518L78.4112 19.711ZM79.4417 15.3426C79.6246 14.5639 79.3945 13.7445 78.8246 13.1761L77.4123 14.5922C77.4881 14.6678 77.5201 14.7771 77.4947 14.8854L79.4417 15.3426ZM78.8265 13.178C78.2608 12.6109 77.4409 12.3777 76.6608 12.5609L77.118 14.5079C77.2249 14.4828 77.3355 14.5153 77.4103 14.5903L78.8265 13.178ZM76.66 12.5611L72.2935 13.5905L72.7523 15.5371L77.1189 14.5077L76.66 12.5611ZM73.1691 13.8006C72.8796 13.5555 72.5846 13.3122 72.2852 13.0735L71.0387 14.6376C71.3207 14.8624 71.6003 15.093 71.8768 15.327L73.1691 13.8006ZM72.6613 13.8906L72.8184 9.40686L70.8196 9.33683L70.6625 13.8205L72.6613 13.8906ZM72.8183 9.41006C72.849 8.60695 72.4579 7.8462 71.7905 7.40223L70.6828 9.0675C70.7722 9.12693 70.8238 9.22889 70.8197 9.33363L72.8183 9.41006ZM71.7922 7.4034C71.1244 6.9572 70.2776 6.89001 69.5493 7.22135L70.3775 9.04182C70.4772 8.99647 70.5903 9.00566 70.6811 9.06633L71.7922 7.4034ZM69.5486 7.22168L65.4745 9.07904L66.3042 10.8988L70.3782 9.04148L69.5486 7.22168ZM66.3705 9.11229C66.0391 8.9304 65.7012 8.74719 65.3574 8.56904L64.4372 10.3448C64.76 10.5121 65.0818 10.6864 65.4082 10.8656L66.3705 9.11229ZM65.8843 9.29599L65.1639 4.87739L63.19 5.19921L63.9104 9.61781L65.8843 9.29599ZM65.164 4.87762C65.0355 4.08855 64.507 3.41888 63.7656 3.11251L63.0018 4.96092C63.1005 5.00172 63.1726 5.09235 63.1899 5.19897L65.164 4.87762ZM63.7679 3.11347C63.0266 2.80499 62.1794 2.90547 61.5304 3.37273L62.6991 4.9958C62.7878 4.93188 62.9023 4.91953 62.9995 4.95996L63.7679 3.11347ZM61.5307 3.37252L57.8985 5.98584L59.0665 7.60932L62.6988 4.996L61.5307 3.37252ZM58.7855 5.84459C58.42 5.72839 58.0516 5.61625 57.6787 5.5092L57.1269 7.43155C57.4795 7.5328 57.8298 7.63938 58.1795 7.75057L58.7855 5.84459ZM58.3395 6.12019L56.7729 1.92985L54.8995 2.63022L56.4661 6.82056L58.3395 6.12019ZM56.7735 1.93142C56.4936 1.17904 55.8444 0.626246 55.0567 0.470221L54.6681 2.43211C54.7743 2.45314 54.8611 2.52699 54.8989 2.62865L56.7735 1.93142ZM55.0552 0.469931C54.2707 0.31578 53.4624 0.57672 52.9167 1.16067L54.3779 2.52626C54.4519 2.44712 54.5618 2.41123 54.6696 2.4324L55.0552 0.469931ZM52.9157 1.16168L49.8589 4.44156L51.322 5.80515L54.3788 2.52526L52.9157 1.16168ZM50.7004 4.12942C50.3251 4.08791 49.9438 4.04957 49.5612 4.01821L49.3978 6.01152C49.7564 6.04092 50.1181 6.07722 50.4805 6.1173L50.7004 4.12942ZM50.3298 4.48861L47.9691 0.674082L46.2684 1.72659L48.6292 5.54112L50.3298 4.48861ZM47.9694 0.674641C47.548 -0.00729591 46.803 -0.421097 46.0026 -0.421097V1.5789C46.1118 1.5789 46.2121 1.63552 46.2681 1.72603L47.9694 0.674641ZM46.0026 -0.421097C45.2025 -0.421097 44.4566 -0.00744253 44.0358 0.676026L45.7388 1.72465C45.7936 1.63566 45.8931 1.5789 46.0026 1.5789V-0.421097ZM44.037 0.674082L41.6762 4.48861L43.3769 5.54112L45.7376 1.72659L44.037 0.674082ZM42.4451 4.01819C42.0615 4.04956 41.6801 4.08791 41.3048 4.12942L41.5247 6.1173C41.8871 6.07722 42.2487 6.04093 42.6081 6.01154L42.4451 4.01819ZM42.1462 4.44146L39.0885 1.16157L37.6256 2.52537L40.6833 5.80525L42.1462 4.44146ZM39.0877 1.16067C38.5419 0.576661 37.7326 0.315691 36.9488 0.470002L37.3351 2.43233C37.4418 2.41132 37.5525 2.44718 37.6264 2.52626L39.0877 1.16067ZM36.9458 0.470586C36.1608 0.627594 35.5112 1.1778 35.2309 1.93142L37.1054 2.62865C37.1428 2.52823 37.2292 2.45353 37.3381 2.43175L36.9458 0.470586ZM35.2315 1.92985L33.6649 6.12019L35.5382 6.82056L37.1048 2.63022L35.2315 1.92985ZM34.3256 5.5092C33.9516 5.61657 33.5835 5.72953 33.2207 5.84372L33.8212 7.75144C34.1754 7.63997 34.5259 7.53249 34.8775 7.43155L34.3256 5.5092ZM34.1051 5.98591L30.4737 3.37259L29.3055 4.99593L32.9369 7.60925L34.1051 5.98591ZM30.4751 3.37363C29.8254 2.90426 28.977 2.80402 28.2347 3.11386L29.005 4.95957C29.1027 4.91877 29.2161 4.93136 29.304 4.99489L30.4751 3.37363ZM28.2372 3.11279C27.4981 3.41886 26.9681 4.08768 26.8395 4.87762L28.8135 5.19897C28.8308 5.09322 28.9031 5.00174 29.0024 4.96064L28.2372 3.11279ZM26.8396 4.87739L26.1192 9.29599L28.0931 9.61781L28.8135 5.19921L26.8396 4.87739ZM26.646 8.56904C26.3031 8.74677 25.9654 8.92898 25.6312 9.11326L26.597 10.8646C26.9207 10.6861 27.2427 10.5125 27.5663 10.3448L26.646 8.56904ZM26.5289 9.07904L22.4549 7.22168L21.6252 9.04148L25.6993 10.8988L26.5289 9.07904ZM22.4557 7.22207C21.7266 6.88882 20.8751 6.95678 20.2086 7.40518L21.3251 9.06456C21.412 9.00609 21.5256 8.99593 21.6244 9.0411L22.4557 7.22207ZM20.213 7.40223C19.5455 7.84619 19.1545 8.60695 19.1852 9.41006L21.1837 9.33363C21.1797 9.22889 21.2313 9.12693 21.3206 9.0675L20.213 7.40223ZM19.1851 9.40667L19.3413 13.8904L21.3401 13.8207L21.1838 9.33702L19.1851 9.40667ZM19.7163 13.0744C19.4185 13.3125 19.1243 13.5552 18.8347 13.7996L20.1247 15.328C20.4028 15.0933 20.6831 14.862 20.9651 14.6366L19.7163 13.0744ZM19.7091 13.5905L15.3426 12.5611L14.8837 14.5077L19.2502 15.5371L19.7091 13.5905ZM15.34 12.5605C14.5621 12.3793 13.7432 12.6101 13.1762 13.1771L14.5904 14.5913C14.6657 14.516 14.7772 14.4829 14.8864 14.5084L15.34 12.5605ZM13.1772 13.1761C12.6072 13.7445 12.3772 14.5639 12.56 15.3426L14.5071 14.8854C14.4816 14.7771 14.5137 14.6678 14.5895 14.5922L13.1772 13.1761ZM12.5602 15.3433L13.5887 19.7107L15.5354 19.2522L14.5069 14.8848L12.5602 15.3433ZM13.7977 18.8366C13.5541 19.1254 13.3124 19.4186 13.0745 19.7163L14.6366 20.9651C14.8622 20.683 15.0926 20.4034 15.3264 20.1262L13.7977 18.8366ZM13.8904 19.3413L9.40667 19.1851L9.33702 21.1838L13.8207 21.3401L13.8904 19.3413ZM9.40063 19.1849C8.61277 19.1622 7.85157 19.5398 7.40311 20.2117L9.06662 21.322C9.12329 21.2371 9.22654 21.1807 9.34307 21.184L9.40063 19.1849ZM7.40518 20.2086C6.95576 20.8766 6.89094 21.7272 7.22102 22.4543L9.04215 21.6276C8.99555 21.5249 9.00711 21.4104 9.06456 21.3251L7.40518 20.2086ZM7.22165 22.4557L9.07901 26.5306L10.8989 25.7011L9.04152 21.6262L7.22165 22.4557ZM9.11336 25.6328C8.93068 25.9639 8.74687 26.3028 8.56807 26.6497L10.3457 27.5661C10.5124 27.2429 10.6861 26.9222 10.8645 26.5989L9.11336 25.6328ZM9.29634 26.1209L4.87861 26.8395L5.19973 28.8136L9.61747 28.0949L9.29634 26.1209ZM4.8788 26.8395C4.08688 26.9681 3.4207 27.4979 3.11406 28.2363L4.96111 29.0033C5.00338 28.9016 5.09402 28.8307 5.19954 28.8136L4.8788 26.8395ZM3.1131 28.2386C2.80767 28.9793 2.90699 29.8237 3.37269 30.4726L4.99757 29.3065C4.93384 29.2177 4.92033 29.1022 4.96206 29.001L3.1131 28.2386ZM3.37359 30.4739L5.98691 34.1035L7.60999 32.9349L4.99667 29.3053L3.37359 30.4739ZM5.84525 33.2169C5.72955 33.5817 5.61651 33.951 5.5092 34.3247L7.43155 34.8766C7.53255 34.5248 7.63996 34.1737 7.75165 33.8216L5.84525 33.2169ZM6.12019 33.664L1.92985 35.2306L2.63022 37.104L6.82056 35.5374L6.12019 33.664ZM1.93017 35.2305C1.18002 35.5106 0.627868 36.1596 0.47196 36.9468L2.43385 37.3354C2.455 37.2286 2.52949 37.1416 2.6299 37.1041L1.93017 35.2305ZM0.472032 36.9464C0.31601 37.7327 0.578009 38.5414 1.16235 39.0876L2.52807 37.6265C2.44757 37.5513 2.41274 37.4417 2.43378 37.3357L0.472032 36.9464ZM1.16322 39.0884L4.44137 42.1452L5.80535 40.6825L2.52719 37.6257L1.16322 39.0884ZM4.12942 41.304C4.08772 41.681 4.05041 42.0611 4.0184 42.4408L6.01133 42.6088C6.04181 42.2473 6.07741 41.8845 6.1173 41.5238L4.12942 41.304ZM4.48853 41.6746L0.674866 44.0353L1.72755 45.7359L5.54121 43.3751L4.48853 41.6746ZM0.67551 44.0349C-0.00611514 44.4561 -0.420227 45.2001 -0.420227 46.0017H1.57977C1.57977 45.892 1.63608 45.7924 1.7269 45.7363L0.67551 44.0349ZM-0.420227 46.0017C-0.420227 46.803 -0.00626415 47.5479 0.676896 47.9685L1.72552 46.2655C1.63622 46.2105 1.57977 46.1118 1.57977 46.0017H-0.420227ZM0.674866 47.9673L4.48853 50.328L5.54121 48.6275L1.72755 46.2667L0.674866 47.9673ZM4.01839 49.5616C4.05042 49.9424 4.08774 50.3217 4.12942 50.6986L6.1173 50.4788C6.07739 50.118 6.04181 49.7561 6.01135 49.394L4.01839 49.5616ZM4.44127 49.8574L1.16312 52.9151L2.5273 54.3777L5.80545 51.32L4.44127 49.8574ZM1.16337 52.9149C0.577669 53.4608 0.315985 54.2713 0.472105 55.0565L2.43371 54.6665C2.41277 54.5612 2.44792 54.4517 2.52705 54.3779L1.16337 52.9149ZM0.47196 55.0558C0.628103 55.8442 1.18089 56.4908 1.92849 56.7715L2.63158 54.8992C2.52862 54.8605 2.45476 54.7728 2.43385 54.6672L0.47196 55.0558ZM1.92985 56.772L6.12019 58.3386L6.82056 56.4652L2.63022 54.8986L1.92985 56.772ZM5.5092 57.6779C5.61651 58.0516 5.72955 58.4209 5.84525 58.7857L7.75165 58.181C7.63996 57.8289 7.53255 57.4778 7.43155 57.126L5.5092 57.6779ZM5.98685 57.8992L3.37353 61.5297L4.99674 62.6981L7.61006 59.0676L5.98685 57.8992ZM3.37295 61.5305C2.90678 62.1795 2.80565 63.0252 3.11434 63.767L4.96083 62.9986C4.92061 62.9019 4.93231 62.7878 4.99732 62.6973L3.37295 61.5305ZM3.11378 63.7657C3.42056 64.5059 4.08863 65.0361 4.88153 65.1634L5.19855 63.1887C5.09401 63.1719 5.00351 63.1016 4.96139 62.9999L3.11378 63.7657ZM4.87945 65.1631L9.29631 65.8817L9.6175 63.9077L5.20063 63.1891L4.87945 65.1631ZM8.56807 65.3529C8.74586 65.6978 8.92769 66.0365 9.11424 66.3732L10.8636 65.4038C10.6857 65.0826 10.5134 64.7617 10.3457 64.4365L8.56807 65.3529ZM9.07907 65.4736L7.22172 69.5468L9.04145 70.3766L10.8988 66.3034L9.07907 65.4736ZM7.22207 69.546C6.88846 70.276 6.95754 71.1256 7.40399 71.7922L9.06574 70.6793C9.00533 70.5891 8.9963 70.4754 9.0411 70.3773L7.22207 69.546ZM7.4034 71.7914C7.84792 72.4566 8.6076 72.8498 9.41212 72.8173L9.33157 70.819C9.23171 70.823 9.12868 70.7735 9.06633 70.6802L7.4034 71.7914ZM9.40688 72.8175L13.8888 72.6604L13.8188 70.6617L9.33682 70.8188L9.40688 72.8175ZM13.0732 72.286C13.3124 72.5849 13.5531 72.8771 13.7979 73.167L15.3262 71.877C15.0918 71.5994 14.8621 71.3205 14.6345 71.0361L13.0732 72.286ZM13.5887 72.2929L12.5602 76.6611L14.5069 77.1195L15.5354 72.7512L13.5887 72.2929ZM12.5601 76.6613C12.3768 77.4406 12.6081 78.2581 13.1772 78.8256L14.5895 77.4095C14.5128 77.333 14.482 77.2253 14.507 77.1193L12.5601 76.6613ZM13.1724 78.8208C13.7431 79.3977 14.5672 79.6219 15.3418 79.44L14.8846 77.4929C14.7721 77.5193 14.6641 77.4849 14.5942 77.4143L13.1724 78.8208ZM15.3424 79.4398L19.709 78.4113L19.2504 76.4646L14.8839 77.4931L15.3424 79.4398ZM18.832 78.1998C19.126 78.4498 19.4218 78.6911 19.7177 78.9267L20.9637 77.3622C20.6797 77.1361 20.4011 76.9087 20.1274 76.6761L18.832 78.1998ZM19.3413 78.1096L19.1851 82.5942L21.1838 82.6638L21.3401 78.1793L19.3413 78.1096ZM19.1852 82.5908C19.1544 83.3952 19.5465 84.1531 20.2104 84.5977L21.3233 82.936C21.2304 82.8738 21.1798 82.7707 21.1837 82.6672L19.1852 82.5908ZM20.2099 84.5974C20.8771 85.0448 21.728 85.1105 22.4557 84.7779L21.6244 82.9589C21.5241 83.0047 21.4099 82.9941 21.3237 82.9363L20.2099 84.5974ZM22.4547 84.7784L26.5288 82.9219L25.6994 81.102L21.6254 82.9584L22.4547 84.7784ZM25.6285 82.8861C25.9649 83.073 26.3036 83.2548 26.647 83.4323L27.5653 81.6556C27.2404 81.4877 26.9194 81.3154 26.5998 81.1378L25.6285 82.8861ZM26.1192 82.705L26.8396 87.121L28.8135 86.799L28.0931 82.383L26.1192 82.705ZM26.8394 87.12C26.9676 87.9104 27.4959 88.5815 28.2395 88.8873L29.0001 87.0375C28.9036 86.9979 28.8313 86.9087 28.8136 86.7999L26.8394 87.12ZM28.2356 88.8857C28.9766 89.194 29.824 89.0936 30.4726 88.6282L29.3065 87.0033C29.2174 87.0673 29.1014 87.0797 29.004 87.0392L28.2356 88.8857ZM30.4741 88.6271L34.1038 86.012L32.9347 84.3893L29.305 87.0044L30.4741 88.6271ZM33.2169 86.1539C33.5801 86.2691 33.9498 86.3832 34.3247 86.4908L34.8766 84.5685C34.526 84.4678 34.1753 84.3597 33.8216 84.2475L33.2169 86.1539ZM33.664 85.8799L35.2307 90.0685L37.1039 89.3679L35.5373 85.1793L33.664 85.8799ZM35.2305 90.0681C35.5097 90.8157 36.1578 91.3731 36.9505 91.527L37.3317 89.5637C37.2304 89.544 37.1425 89.4713 37.1041 89.3684L35.2305 90.0681ZM36.9428 91.5255C37.7327 91.6853 38.5436 91.4202 39.0886 90.834L37.6238 89.4722C37.5491 89.5525 37.4417 89.5859 37.3394 89.5652L36.9428 91.5255ZM39.0875 90.8352L42.1452 87.557L40.6826 86.1928L37.6249 89.471L39.0875 90.8352ZM41.2993 87.8683C41.6805 87.9123 42.0617 87.9487 42.4373 87.9821L42.6141 85.9899C42.2468 85.9573 41.885 85.9226 41.5284 85.8815L41.2993 87.8683ZM41.6754 87.5123L44.0362 91.326L45.7367 90.2733L43.376 86.4597L41.6754 87.5123ZM44.036 91.3257C44.4555 92.004 45.1995 92.4211 46.0017 92.4211V90.4211C45.8943 90.4211 45.793 90.3643 45.7369 90.2736L44.036 91.3257ZM46.0017 92.4211C46.8032 92.4211 47.5473 92.0056 47.968 91.3262L46.2677 90.2731C46.2112 90.3645 46.1099 90.4211 46.0017 90.4211V92.4211ZM47.9682 91.326L50.3289 87.5123L48.6284 86.4597L46.2676 90.2733L47.9682 91.326ZM49.5671 87.9821C49.9428 87.9487 50.3231 87.9123 50.7041 87.8683L50.475 85.8815C50.1184 85.9226 49.7574 85.9573 49.3902 85.9899L49.5671 87.9821ZM49.8582 87.5569L52.915 90.835L54.3778 89.4711L51.3209 86.1929L49.8582 87.5569ZM52.914 90.834C53.4591 91.4202 54.271 91.6854 55.0602 91.5254L54.6628 89.5653C54.5615 89.5858 54.4534 89.5524 54.3788 89.4722L52.914 90.834ZM55.054 91.5267C55.8439 91.3717 56.4924 90.817 56.7721 90.0681L54.8985 89.3684C54.8606 89.47 54.7731 89.5436 54.6691 89.564L55.054 91.5267ZM56.7719 90.0685L58.3386 85.8799L56.4653 85.1793L54.8987 89.3679L56.7719 90.0685ZM57.6779 86.4908C58.0528 86.3832 58.4225 86.2691 58.7857 86.1539L58.181 84.2475C57.8273 84.3597 57.4766 84.4678 57.126 84.5685L57.6779 86.4908ZM57.8989 86.0121L61.5294 88.6272L62.6983 87.0043L59.0678 84.3893L57.8989 86.0121ZM61.5308 88.6282C62.1793 89.0935 63.0258 89.1941 63.767 88.8857L62.9986 87.0392C62.9013 87.0796 62.7862 87.0674 62.6969 87.0033L61.5308 88.6282ZM63.7631 88.8873C64.5073 88.5813 65.035 87.909 65.1631 87.1203L63.189 86.7996C63.1713 86.9084 63.0985 86.9981 63.0025 87.0375L63.7631 88.8873ZM65.163 87.121L65.8834 82.705L63.9095 82.383L63.1891 86.799L65.163 87.121ZM65.3566 83.4318C65.7008 83.2534 66.0395 83.0689 66.3678 82.8896L65.4091 81.1343C65.0796 81.3143 64.7587 81.4891 64.4363 81.6561L65.3566 83.4318ZM65.4738 82.9219L69.5479 84.7784L70.3772 82.9584L66.3032 81.102L65.4738 82.9219ZM69.5469 84.7779C70.275 85.1107 71.1246 85.0444 71.7918 84.598L70.6797 82.9357C70.5918 82.9945 70.478 83.0045 70.3782 82.9589L69.5469 84.7779ZM71.7922 84.5977C72.4571 84.1525 72.8466 83.3955 72.8175 82.5928L70.8188 82.6653C70.8227 82.7721 70.7713 82.8744 70.6793 82.936L71.7922 84.5977ZM72.8176 82.5942L72.6613 78.1096L70.6625 78.1793L70.8188 82.6638L72.8176 82.5942ZM72.2863 78.9256C72.5799 78.6908 72.8765 78.45 73.1709 78.1989L71.8732 76.6771C71.6017 76.9085 71.3237 77.1346 71.0375 77.3634L72.2863 78.9256ZM72.2928 78.4113L76.6593 79.4398L77.1178 77.4931L72.7513 76.4646L72.2928 78.4113ZM76.66 79.44C77.4349 79.622 78.2581 79.3974 78.8285 78.8208L77.4066 77.4143C77.3365 77.4852 77.2292 77.5192 77.1172 77.4929L76.66 79.44ZM78.8237 78.8256C79.3928 78.258 79.6241 77.4406 79.4407 76.6613L77.4939 77.1193C77.5188 77.2253 77.488 77.333 77.4114 77.4095L78.8237 78.8256ZM79.4407 76.6611L78.4122 72.2929L76.4654 72.7512L77.4939 77.1195L79.4407 76.6611ZM78.203 73.167C78.4467 72.8783 78.6899 72.5842 78.9294 72.2818L77.3613 71.0404C77.139 71.3212 76.91 71.5982 76.6746 71.877L78.203 73.167ZM78.1103 72.6604L82.594 72.8175L82.664 70.8188L78.1803 70.6617L78.1103 72.6604ZM82.5887 72.8173C83.3923 72.8497 84.154 72.4574 84.5983 71.79L82.9337 70.6815C82.8729 70.7728 82.7701 70.823 82.6693 70.819L82.5887 72.8173ZM84.5969 71.7922C85.0434 71.1256 85.1127 70.2752 84.7772 69.5444L82.9596 70.3789C83.0042 70.4761 82.9955 70.5891 82.9351 70.6793L84.5969 71.7922ZM84.7784 69.5469L82.9219 65.4738L81.102 66.3032L82.9585 70.3764L84.7784 69.5469ZM82.8876 66.3714C83.0718 66.0374 83.2549 65.6981 83.4329 65.3511L81.6533 64.4383C81.4876 64.7613 81.3148 65.0817 81.1362 65.4056L82.8876 66.3714ZM82.7037 65.8817L87.1214 65.1631L86.8003 63.1891L82.3825 63.9077L82.7037 65.8817ZM87.119 65.1635C87.9134 65.0362 88.5812 64.5053 88.8869 63.764L87.0379 63.0016C86.9965 63.1021 86.9074 63.1719 86.8026 63.1887L87.119 65.1635ZM88.8863 63.7654C89.192 63.0272 89.0959 62.1811 88.6261 61.5292L87.0036 62.6985C87.0667 62.7861 87.08 62.9 87.0385 63.0002L88.8863 63.7654ZM88.6265 61.5297L86.0132 57.8992L84.3899 59.0676L87.0033 62.6981L88.6265 61.5297ZM86.1554 58.7836C86.2698 58.4202 86.3824 58.0523 86.4902 57.68L84.5691 57.1239C84.4668 57.4771 84.359 57.8296 84.2477 58.1831L86.1554 58.7836ZM85.8799 58.3386L90.0693 56.772L89.3688 54.8987L85.1794 56.4653L85.8799 58.3386ZM90.07 56.7717C90.8173 56.4917 91.3739 55.8451 91.5279 55.0521L89.5646 54.6709C89.545 54.7718 89.4732 54.8596 89.3682 54.8989L90.07 56.7717ZM91.5264 55.0598C91.6862 54.2699 91.4211 53.459 90.8348 52.914L89.473 54.3788C89.5534 54.4535 89.5868 54.5609 89.5661 54.6632L91.5264 55.0598ZM90.8361 52.9152L87.5588 49.8575L86.1945 51.3199L89.4717 54.3776L90.8361 52.9152ZM87.8708 50.6963C87.9115 50.3208 87.9486 49.9422 87.9814 49.5641L85.9889 49.3914C85.9574 49.7545 85.9217 50.1189 85.8824 50.4811L87.8708 50.6963ZM87.5115 50.328L91.3251 47.9673L90.2724 46.2667L86.4588 48.6275L87.5115 50.328ZM91.3231 47.9685C92.0066 47.5477 92.4202 46.8018 92.4202 46.0017H90.4202C90.4202 46.1113 90.3635 46.2107 90.2745 46.2655L91.3231 47.9685ZM92.4202 46.0017C92.4202 45.2027 92.0084 44.457 91.3253 44.0349L90.274 45.7363C90.3634 45.7915 90.4202 45.8912 90.4202 46.0017H92.4202ZM65.4857 75.5448C64.5705 75.3473 63.9853 74.4442 64.1827 73.521L62.227 73.1027C61.7996 75.1009 63.0665 77.0689 65.064 77.4998L65.4857 75.5448ZM64.1828 73.5207C64.3792 72.6013 65.2822 72.0187 66.1956 72.2159L66.6176 70.2609C64.6201 69.8297 62.6537 71.1044 62.2269 73.103L64.1828 73.5207ZM66.1974 72.2162C67.1115 72.4118 67.6977 73.3166 67.5006 74.2367L69.4562 74.6558C69.8839 72.6597 68.6146 70.6881 66.6159 70.2605L66.1974 72.2162ZM67.5006 74.2367C67.3036 75.1558 66.3988 75.7403 65.4842 75.5445L65.0655 77.5001C67.0619 77.9275 69.0282 76.6529 69.4562 74.6558L67.5006 74.2367ZM64.1885 66.7802C62.3194 66.3798 60.4808 67.5695 60.0806 69.441L62.0364 69.8592C62.2056 69.0679 62.9811 68.5669 63.7696 68.7358L64.1885 66.7802ZM60.0807 69.4406L58.7267 75.759L60.6823 76.1781L62.0363 69.8596L60.0807 69.4406ZM59.2912 75.058C55.2406 76.8965 50.7413 77.9186 46 77.9186V79.9186C51.0315 79.9186 55.8121 78.8335 60.1178 76.8792L59.2912 75.058ZM46 77.9186C41.1505 77.9186 36.5535 76.8461 32.4298 74.929L31.5866 76.7426C35.9685 78.7797 40.8527 79.9186 46 79.9186V77.9186ZM32.986 75.6264L31.6329 69.3079L29.6773 69.7267L31.0304 76.0452L32.986 75.6264ZM31.6329 69.3079C31.2329 67.4394 29.3949 66.2464 27.5252 66.6484L27.9456 68.6037C28.7317 68.4347 29.5079 68.9359 29.6773 69.7266L31.6329 69.3079ZM27.5255 66.6484L21.9473 67.8461L22.3672 69.8015L27.9453 68.6038L27.5255 66.6484ZM69.8958 68.0067L64.1892 66.7803L63.7689 68.7357L69.4756 69.9621L69.8958 68.0067ZM26.2287 75.4129C25.3147 75.6101 24.4115 75.0277 24.2138 74.1069L22.2584 74.5269C22.6873 76.5241 24.6517 77.7991 26.6505 77.3679L26.2287 75.4129ZM24.2141 74.1084C24.017 73.1839 24.6025 72.2814 25.5178 72.084L25.0961 70.1289C23.0986 70.5599 21.832 72.5267 22.2581 74.5254L24.2141 74.1084ZM25.5162 72.0843C26.432 71.8884 27.3357 72.4723 27.5326 73.3919L29.4883 72.9731C29.0603 70.9748 27.0947 69.7013 25.0977 70.1286L25.5162 72.0843ZM27.5325 73.3915C27.7293 74.3123 27.1432 75.2166 26.2297 75.4127L26.6495 77.3681C28.647 76.9393 29.9148 74.969 29.4884 72.9736L27.5325 73.3915ZM15.2291 35.0439C15.6102 35.9042 15.2212 36.9104 14.3662 37.2891L15.1762 39.1177C17.0447 38.2901 17.8847 36.1005 17.0577 34.2338L15.2291 35.0439ZM14.3652 37.2895C13.5097 37.6696 12.507 37.2838 12.1262 36.4238L10.2975 37.2335C11.1249 39.1023 13.3092 39.9471 15.1772 39.1173L14.3652 37.2895ZM12.1262 36.4238C11.7452 35.5632 12.1333 34.5586 12.99 34.178L12.1781 32.3502C10.3113 33.1795 9.47033 35.3653 10.2975 37.2335L12.1262 36.4238ZM12.9893 34.1783C13.8467 33.7982 14.8485 34.1843 15.229 35.0437L17.0578 34.234C16.2301 32.3647 14.0467 31.5218 12.1788 32.3499L12.9893 34.1783ZM13.385 43.0542L19.1958 40.4721L18.3836 38.6444L12.5729 41.2265L13.385 43.0542ZM19.1955 40.4722C20.9417 39.6968 21.7291 37.6514 20.9546 35.9036L19.1261 36.7139C19.4539 37.4535 19.1199 38.3175 18.3839 38.6443L19.1955 40.4722ZM20.968 35.9352L18.4276 29.6265L16.5724 30.3735L19.1128 36.6823L20.968 35.9352ZM22.8282 68.0823C20.0242 65.5454 17.7478 60.7709 16.1652 56.0898C15.3827 53.7753 14.7853 51.5312 14.3844 49.6762C13.9782 47.7964 13.7889 46.3848 13.7889 45.7084H11.7889C11.7889 46.6112 12.0189 48.1985 12.4295 50.0987C12.8456 52.0238 13.4627 54.341 14.2705 56.7304C15.8686 61.4571 18.2764 66.6612 21.4863 69.5653L22.8282 68.0823ZM13.7889 45.7084C13.7889 44.5388 13.852 43.3826 13.9733 42.2465L11.9846 42.0342C11.8559 43.2398 11.7889 44.4669 11.7889 45.7084H13.7889ZM18.4104 30.4138C23.2305 19.8096 32.8951 15.3875 40.0248 14.0494L39.6559 12.0838C32.135 13.4953 21.7695 18.1904 16.5896 29.5862L18.4104 30.4138ZM39.1165 13.7566L43.2704 18.1144L44.7181 16.7345L40.5642 12.3766L39.1165 13.7566ZM43.271 18.1151C44.5911 19.4974 46.7799 19.5496 48.1624 18.2269L46.7798 16.7817C46.1974 17.339 45.2755 17.3182 44.7174 16.7338L43.271 18.1151ZM48.1623 18.227L52.8101 13.7814L51.4277 12.3361L46.7799 16.7816L48.1623 18.227ZM51.9358 14.0419C61.3787 15.7999 69.3769 21.6791 73.9867 29.7477L75.7233 28.7556C70.8293 20.1896 62.337 13.9439 52.3019 12.0757L51.9358 14.0419ZM73.9406 28.8468L70.7588 36.0332L72.5876 36.8429L75.7694 29.6565L73.9406 28.8468ZM70.7585 36.034C69.9867 37.7811 70.7734 39.8259 72.5187 40.6014L73.3308 38.7737C72.5956 38.447 72.2609 37.5825 72.5879 36.8421L70.7585 36.034ZM72.5188 40.6015L78.6446 43.3224L79.4565 41.4946L73.3307 38.7737L72.5188 40.6015ZM78.0553 42.5054C78.1581 43.5618 78.212 44.6282 78.212 45.7084H80.212C80.212 44.5615 80.1548 43.4303 80.0459 42.3116L78.0553 42.5054ZM44.6878 10.0818C45.3632 9.4347 46.4368 9.45823 47.0867 10.1383L48.5326 8.75644C47.122 7.28055 44.7812 7.2225 43.3042 8.63761L44.6878 10.0818ZM47.0853 10.1368C47.7343 10.8186 47.7086 11.8955 47.0296 12.5439L48.4109 13.9903C49.8895 12.5783 49.942 10.2372 48.534 8.75792L47.0853 10.1368ZM47.0284 12.545C46.3527 13.1924 45.2796 13.1689 44.6301 12.4882L43.1831 13.8689C44.594 15.3476 46.9353 15.404 48.412 13.9892L47.0284 12.545ZM44.6306 12.4888C43.9833 11.8093 44.0078 10.7322 44.6872 10.0823L43.3047 8.63705C41.8282 10.0494 41.7745 12.3902 43.1825 13.8683L44.6306 12.4888ZM76.4856 35.1745C76.8654 34.316 77.8677 33.9297 78.7236 34.3099L79.5355 32.4821C77.6679 31.6524 75.4832 32.4969 74.6565 34.3654L76.4856 35.1745ZM78.7241 34.3101C79.5799 34.6898 79.9684 35.6956 79.5874 36.5555L81.416 37.3656C82.2432 35.4985 81.4027 33.3104 79.535 32.4819L78.7241 34.3101ZM79.5871 36.5562C79.2073 37.4153 78.2051 37.8018 77.3481 37.4214L76.5366 39.2493C78.405 40.0788 80.5897 39.2346 81.4163 37.3649L79.5871 36.5562ZM77.3483 37.4215C76.4942 37.0421 76.1046 36.0367 76.4857 35.1741L74.6564 34.3658C73.8311 36.2336 74.6705 38.4205 76.5365 39.2493L77.3483 37.4215ZM78.2215 45.5709C77.3408 51.9163 76.4984 55.5511 75.1649 58.6016C73.8276 61.6607 71.9773 64.183 68.9414 68.3085L70.5523 69.4939C73.5549 65.4136 75.5536 62.7056 76.9974 59.4027C78.445 56.0913 79.316 52.2325 80.2025 45.8459L78.2215 45.5709ZM68.9414 68.3085L68.8802 68.3917L70.4911 69.577L70.5523 69.4939L68.9414 68.3085Z" fill="black" mask="url(#path-1-inside-1)"/>
<path d="M73 46.1254C73 42.5369 68.5202 39.1362 61.6519 37.0273C63.2369 30.005 62.5324 24.4181 59.4285 22.6294C58.713 22.2098 57.8765 22.011 56.9629 22.011V24.4733C57.4692 24.4733 57.8765 24.5726 58.2177 24.7603C59.7146 25.6216 60.364 28.9008 59.8577 33.1186C59.7367 34.1565 59.5385 35.2496 59.2964 36.3648C57.139 35.8348 54.7835 35.4263 52.307 35.1613C50.821 33.1186 49.2801 31.2637 47.7281 29.6406C51.3163 26.2951 54.6845 24.4622 56.9739 24.4622V22C53.947 22 49.9845 24.1641 45.978 27.9182C41.9715 24.1862 38.009 22.0442 34.9821 22.0442V24.5064C37.2605 24.5064 40.6396 26.3282 44.2279 29.6517C42.6869 31.2747 41.1459 33.1186 39.682 35.1613C37.1945 35.4263 34.839 35.8348 32.6816 36.3758C32.4285 35.2717 32.2413 34.2007 32.1093 33.1738C31.5919 28.9561 32.2303 25.6768 33.7163 24.8045C34.0465 24.6058 34.4757 24.5174 34.9821 24.5174V22.0552C34.0575 22.0552 33.221 22.254 32.4945 22.6735C29.4015 24.4622 28.7081 30.0381 30.3041 37.0383C23.4578 39.1583 19 42.548 19 46.1254C19 49.7138 23.4798 53.1145 30.3481 55.2234C28.7631 62.2457 29.4676 67.8326 32.5715 69.6213C33.287 70.0409 34.1235 70.2397 35.0481 70.2397C38.075 70.2397 42.0375 68.0756 46.044 64.3215C50.0506 68.0535 54.013 70.1955 57.0399 70.1955C57.9645 70.1955 58.8011 69.9968 59.5275 69.5772C62.6205 67.7885 63.3139 62.2126 61.7179 55.2124C68.5422 53.1035 73 49.7028 73 46.1254ZM58.669 38.7608C58.2617 40.1851 57.7554 41.6536 57.183 43.1221C56.7318 42.2388 56.2585 41.3555 55.7411 40.4722C55.2348 39.5889 54.6955 38.7276 54.1561 37.8885C55.7191 38.1204 57.2271 38.4074 58.669 38.7608ZM53.6278 50.5198C52.7693 52.0104 51.8887 53.4237 50.9751 54.7376C49.3351 54.8811 47.6731 54.9584 46 54.9584C44.338 54.9584 42.6759 54.8811 41.0469 54.7486C40.1333 53.4347 39.2417 52.0325 38.3832 50.5529C37.5467 49.1065 36.7872 47.638 36.0938 46.1585C36.7762 44.6789 37.5467 43.1994 38.3722 41.753C39.2307 40.2624 40.1113 38.8491 41.0249 37.5352C42.6649 37.3916 44.3269 37.3144 46 37.3144C47.662 37.3144 49.3241 37.3916 50.9531 37.5241C51.8667 38.8381 52.7583 40.2403 53.6168 41.7199C54.4533 43.1663 55.2128 44.6348 55.9062 46.1143C55.2128 47.5939 54.4533 49.0734 53.6278 50.5198ZM57.183 49.0844C57.7774 50.564 58.2837 52.0435 58.702 53.4789C57.2601 53.8322 55.7411 54.1303 54.1671 54.3622C54.7065 53.512 55.2458 52.6397 55.7521 51.7454C56.2585 50.8621 56.7318 49.9677 57.183 49.0844ZM46.022 60.8656C44.9984 59.8056 43.9747 58.6242 42.9621 57.3323C43.9527 57.3765 44.9653 57.4096 45.989 57.4096C47.0236 57.4096 48.0473 57.3875 49.0489 57.3323C48.0583 58.6242 47.0347 59.8056 46.022 60.8656ZM37.8329 54.3622C36.2699 54.1303 34.7619 53.8433 33.32 53.4899C33.7273 52.0656 34.2336 50.5971 34.806 49.1286C35.2572 50.0119 35.7305 50.8952 36.2479 51.7785C36.7652 52.6618 37.2935 53.5231 37.8329 54.3622ZM45.967 31.3851C46.9906 32.4451 48.0143 33.6265 49.0269 34.9184C48.0363 34.8742 47.0236 34.8411 46 34.8411C44.9653 34.8411 43.9417 34.8632 42.9401 34.9184C43.9307 33.6265 44.9543 32.4451 45.967 31.3851ZM37.8219 37.8885C37.2825 38.7387 36.7432 39.611 36.2369 40.5053C35.7305 41.3886 35.2572 42.2719 34.806 43.1552C34.2116 41.6757 33.7053 40.1961 33.287 38.7608C34.7289 38.4185 36.2479 38.1204 37.8219 37.8885ZM27.8606 51.7123C23.9641 50.045 21.4435 47.8588 21.4435 46.1254C21.4435 44.3919 23.9641 42.1946 27.8606 40.5384C28.8072 40.1299 29.8418 39.7655 30.9095 39.4233C31.5369 41.5874 32.3624 43.8398 33.3861 46.1474C32.3734 48.444 31.5589 50.6854 30.9425 52.8385C29.8528 52.4962 28.8182 52.1208 27.8606 51.7123ZM33.7823 67.4904C32.2854 66.6291 31.636 63.3499 32.1423 59.1321C32.2634 58.0942 32.4615 57.0011 32.7036 55.8859C34.861 56.4159 37.2165 56.8244 39.693 57.0894C41.179 59.1321 42.7199 60.987 44.2719 62.6101C40.6837 65.9556 37.3155 67.7885 35.0261 67.7885C34.5308 67.7774 34.1125 67.6781 33.7823 67.4904ZM59.8907 59.0769C60.4081 63.2947 59.7697 66.5739 58.2837 67.4462C57.9535 67.6449 57.5243 67.7333 57.0179 67.7333C54.7395 67.7333 51.3604 65.9115 47.7721 62.588C49.3131 60.9649 50.8541 59.121 52.318 57.0784C54.8055 56.8134 57.161 56.4049 59.3184 55.8638C59.5715 56.979 59.7697 58.05 59.8907 59.0769ZM64.1284 51.7123C63.1818 52.1208 62.1472 52.4852 61.0795 52.8275C60.4521 50.6633 59.6266 48.4109 58.6029 46.1033C59.6156 43.8067 60.4301 41.5653 61.0465 39.4122C62.1362 39.7545 63.1708 40.1299 64.1394 40.5384C68.0359 42.2057 70.5565 44.3919 70.5565 46.1254C70.5455 47.8588 68.0249 50.0561 64.1284 51.7123Z" fill="#61DAFB"/>
<path d="M45.989 51.1712C48.7671 51.1712 51.0192 48.9121 51.0192 46.1253C51.0192 43.3386 48.7671 41.0795 45.989 41.0795C43.2109 41.0795 40.9588 43.3386 40.9588 46.1253C40.9588 48.9121 43.2109 51.1712 45.989 51.1712Z" fill="#61DAFB"/>
</svg>
